<?xml version="1.0" encoding="UTF-8" standalone="no"?>
<svg
   width="50"
   height="55.860535"
   viewBox="0 0 50 55.860535"
   fill="none"
   version="1.1"
   id="svg1"
   xml:space="preserve"
   xmlns="http://www.w3.org/2000/svg"
   xmlns:svg="http://www.w3.org/2000/svg"><defs
     id="defs1" /><path
     style="fill:#2a7ae4;fill-opacity:1;stroke-width:0.0382618"
     d="m -1.4306641e-6,45.753817 c 0,-2.59351 0.035000000664,-4.02439 0.098000000664,-4.02439 0.054,0 0.098,0.0602 0.098,0.13406 0,0.17838 18.28740043,0.17948 19.75940043,10e-4 1.4897,-0.18057 2.4491,-0.54951 3.8244,-1.47055 2.2043,-1.4763 3.682,-3.49786 4.7602,-6.51215 0.8751,-2.44659 1.0247,-3.37174 1.0191,-6.30477 0,-2.23524 -0.024,-2.50432 -0.2721,-3.62194 -0.708,-3.19445 -2.0387,-5.86908 -3.8079,-7.65344 -1.478,-1.4908 -4.5434,-3.10662 -4.8705,-2.56738 -0.07,0.11491 -0.1191,1.1101 -0.1362,2.7578 l -0.027,2.57737 -4.1186,-4.69428 c -2.2652,-2.58174 -4.1185,-4.7599404 -4.1185,-4.8405104 0,-0.0807 1.8533,-2.25863 4.1185,-4.84051 l 4.1186,-4.694139998438 0.025,2.721679998438 c 0.023,2.5838 0.035,2.73345 0.2315,2.95629 0.1138,0.12859 0.3385,0.23488 0.4994,0.23488 0.4345,0 2.1267,0.49411 3.0467,0.88972 4.5712,1.96575 8.5961,7.3970804 10.1307,13.6703904 0.6726,2.74959 0.7703,3.65942 0.7703,7.1711 0,3.51167 -0.098,4.42164 -0.7703,7.17109 -1.29,5.27361 -4.3063,9.95297 -8.0834,12.54019 -0.9781,0.66988 -2.4697,1.36959 -3.8005,1.78272 -0.9689,0.30081 -0.9861,0.30122 -11.6345,0.34034 -6.8065004,0.0246 -10.66420043,0.0862 -10.66420043,0.16922 0,0.0711 -0.044,0.12996 -0.098,0.12996 -0.063,0 -0.09800000066,-1.43089 -0.09800000066,-4.02439 z"
     id="path7" /><path
     style="fill:#1f5db1;stroke:none;stroke-width:0.0382618"
     d="m 11.972399,37.751277 c -0.7707,-1.54196 -1.6541,-2.82907 -2.2248004,-4.5609 -1.2696,-3.8523 -1.0841,-8.54288 0.4472004,-12.20709 0.4618,-1.10503 1.0482,-2.16041 1.6962,-3.07338 0.4183,-0.58932 0.9829,-1.01215 1.2582,-1.75577 -1.1756,-1.0997 -2.2402,-2.4968 -3.3341004,-3.74533 -0.3275,-0.37372 -0.9012,-1.31556 -1.3729,-1.23116 -0.4309,0.0766 -0.81,0.82419 -1.0875,1.22241 -0.8322,1.19422 -1.548,2.47134 -2.1681,3.88814 -2.1162,4.83462 -2.7838,10.73776 -1.8851,16.23147 0.2447,1.49586 0.5591,3.73411 1.313,4.92067 0.377,0.59342 1.4422,0.31094 1.9645,0.31094 h 5.3934004 m 29.2223,-2.01226 v 6.03651 h -4.3147 c -0.4845,0 -1.3043,-0.21285 -1.7332,0.13789 -0.7111,0.58138 -1.2921,2.21595 -1.8387,3.0816 -1.1249,1.78135 -2.5678,3.54451 -4.0769,4.69496 v 0.13406 h 11.9635 v 6.03651 c 0.8701,-0.54527 1.6157,-1.66453 2.3535,-2.49187 1.4728,-1.65153 2.949,-3.29828 4.4128,-4.96472 0.4412,-0.50231 2.039002,-1.76493 2.039002,-2.60418 0,-0.83924 -1.597802,-2.102 -2.039002,-2.60431 -1.4638,-1.66644 -2.94,-3.31319 -4.4128,-4.96472 -0.7378,-0.82734 -1.4834,-1.9466 -2.3535,-2.49187 z"
     id="path6" /></svg>
