<?xml version="1.0" encoding="UTF-8" standalone="no"?>
<svg
   width="50"
   height="56.666687"
   viewBox="0 0 50 56.666687"
   fill="none"
   version="1.1"
   id="svg1"
   sodipodi:docname="trashIcon.svg"
   xml:space="preserve"
   inkscape:version="1.3.2 (091e20ef0f, 2023-11-25)"
   xmlns:inkscape="http://www.inkscape.org/namespaces/inkscape"
   xmlns:sodipodi="http://sodipodi.sourceforge.net/DTD/sodipodi-0.dtd"
   xmlns="http://www.w3.org/2000/svg"
   xmlns:svg="http://www.w3.org/2000/svg"><defs
     id="defs1" /><sodipodi:namedview
     id="namedview1"
     pagecolor="#ffffff"
     bordercolor="#000000"
     borderopacity="0.25"
     inkscape:showpageshadow="2"
     inkscape:pageopacity="0.0"
     inkscape:pagecheckerboard="0"
     inkscape:deskcolor="#d1d1d1"
     showguides="true"
     inkscape:zoom="1.4142136"
     inkscape:cx="-353.90694"
     inkscape:cy="-503.10647"
     inkscape:window-width="1920"
     inkscape:window-height="1052"
     inkscape:window-x="0"
     inkscape:window-y="0"
     inkscape:window-maximized="1"
     inkscape:current-layer="svg1" /><path
     d="m 25.576587,0.01220834 c -5.41266,-0.13959 -10.71901,0.91849 -14.86074,3.20054996 -4.9163199,2.70884 -8.6329999,7.4022297 -10.05226988,12.6938497 -1.03995,3.87746 -0.83992,9.00966 0.47614998,12.24153 0.88224,2.16644 1.85807,3.23737 4.90046,5.37669 4.3770899,3.07783 5.7003399,5.10786 5.7076499,8.75398 0.002,1.03609 -0.0788,2.1605 -0.17983,2.49735 -0.16068,0.53526 -0.2657,0.59134 -0.83377,0.45613 -1.5310499,-0.36442 -1.4907099,-0.40526 -2.8487199,3.03139 -0.6984,1.76745 -1.24017,3.40758 -1.20365,3.64528 0.0601,0.39039 1.28842,0.63936 12.6966099,2.58097 6.94638,1.18222 12.80919,2.16003 13.02972,2.17234 0.46023,0.0257 0.45388,0.0434 1.25883,-3.15494 0.80365,-3.19317 0.80433,-3.1789 -0.34944,-3.36019 -1.07022,-0.16816 -1.10722,-0.27843 -0.57629,-1.72761 0.40876,-1.11567 1.62461,-2.27595 2.63006,-2.51064 0.33802,-0.0789 1.41089,0.0196 2.38483,0.21856 3.92777,0.80267 6.78529,0.28478 7.77369,-1.41022 0.36834,-0.63166 0.42859,-1.0667 0.32288,-2.33959 -0.11371,-1.36918 -0.0701,-1.60912 0.34128,-1.93667 0.51013,-0.40624 0.60078,-1.06323 0.23705,-1.6953 -0.17368,-0.30181 -0.1146,-0.49638 0.23501,-0.79064 0.66249,-0.55758 0.85064,-1.733 0.37806,-2.36049 -0.60698,-0.80594 -0.45283,-1.14339 0.81946,-1.79603 1.65042,-0.84662 2.71735,-2.56776 1.79629,-2.89647 -0.49485,-0.17659 -2.21958,-2.61926 -3.10825,-4.4036 -0.76388,-1.53375 -0.76767,-1.55746 -0.43119,-2.80142 0.75277,-2.78298 0.36412,-7.74741 -0.86238,-10.99286 l -0.46185,-1.22206 1.17096,-0.98069 c 0.64454,-0.5389397 1.17301,-1.1475097 1.17301,-1.3531897 0,-0.67365 -3.82176,-3.91767 -6.06937,-5.15243 -4.56259,-2.50653 -10.08158,-3.84400996 -15.49425,-3.98357996 z m -13.98141,44.78819966 20.90526,4.30266 c 0.008,0.002 -0.22904,0.7107 0.0167,0.76324 l -21.43971,-4.58282 c 0.41657,0.0563 0.37906,-0.38676 0.51771,-0.48308 z"
     style="fill:#2a7ae4;fill-opacity:1;stroke:none;stroke-width:1.00903"
     id="path4"
     sodipodi:nodetypes="sssssscsscssssssssssssssssssccssscsscc"
     inkscape:export-filename="../../../portafolio/oracleone_portafolio/assets/autodis.png"
     inkscape:export-xdpi="241.06776"
     inkscape:export-ydpi="241.06776" /><path
     style="fill:#ffffff;stroke-width:1.00903"
     d="m 17.646487,37.721018 c -0.5885,-0.54731 -0.704,-0.81341 -0.62527,-1.44056 l 0.0966,-0.76923 h -1.84151 c -1.35637,0 -1.94017,-0.0918 -2.21598,-0.34826 -0.31982,-0.29744 -0.37447,-1.13191 -0.37447,-5.71788 0,-3.88088 0.0793,-5.44336 0.28596,-5.63557 0.33266,-0.30938 5.32997,-0.37894 5.53064,-0.077 0.0691,0.10393 -0.0285,0.3782 -0.21665,0.60946 -0.73508,0.90316 -0.18869,2.08267 0.96477,2.08267 0.35575,0 0.72871,-0.22069 0.98304,-0.58169 0.3859,-0.54773 0.38621,-0.61996 0.005,-1.23689 -0.22237,-0.36036 -0.40432,-0.74685 -0.40432,-0.85886 0,-0.11201 1.07235,-0.20367 2.38298,-0.20367 h 2.38299 v -2.20315 c 0,-1.21173 0.10421,-2.26306 0.23156,-2.33626 0.12736,-0.0732 0.49648,0.0283 0.82026,0.22564 0.77815,0.47418 1.60937,0.33977 1.96008,-0.31696 0.61255,-1.14698 -0.81152,-2.31306 -1.80433,-1.47746 -0.26121,0.21986 -0.63978,0.34091 -0.84125,0.269 -0.29686,-0.10594 -0.36632,-0.56492 -0.36632,-2.42041 0,-1.48536 0.10044,-2.3831 0.28595,-2.55562 0.33267,-0.30939 5.32998,-0.37894 5.53064,-0.077 0.0691,0.10394 -0.0285,0.37819 -0.21665,0.60947 -0.73508,0.90316 -0.18868,2.08266 0.96478,2.08266 0.35574,0 0.72871,-0.22069 0.98304,-0.58169 0.38589,-0.54774 0.38621,-0.61995 0.005,-1.2369 -0.22238,-0.36035 -0.40432,-0.75 -0.40432,-0.86589 0,-0.12476 1.14192,-0.18523 2.8,-0.14825 l 2.8,0.0625 0.0618,11.16678 c 0.0446,8.06169 -0.0132,11.25082 -0.2079,11.46901 -0.18315,0.20525 -0.83385,0.30223 -2.02775,0.30223 h -1.75806 v 0.89656 c 0,0.65642 -0.15667,1.04229 -0.58491,1.44056 -1.37695,1.28058 -4.11726,0.18904 -3.89859,-1.55291 l 0.0947,-0.75427 -1.91623,-0.0704 c -1.05393,-0.0387 -2.7473,-0.0412 -3.76303,-0.006 l -1.84682,0.0647 v 0.88725 c 0,1.91507 -2.34621,2.70837 -3.85635,1.3039 z m 2.5287,-0.56344 c 0.46293,-0.43055 0.47029,-1.17754 0.0171,-1.7344 -0.18823,-0.23127 -0.28572,-0.50553 -0.21665,-0.60947 0.0691,-0.10394 1.13796,-0.18897 2.37534,-0.18897 h 2.24977 v -2.20315 c 0,-1.22713 0.10538,-2.26374 0.23787,-2.33989 0.13084,-0.0752 0.4764,0.0187 0.76793,0.20854 0.76611,0.49906 1.54668,0.42733 1.97565,-0.18156 0.77956,-1.10649 -0.74974,-2.45411 -1.79069,-1.57797 -0.91513,0.77022 -1.19076,0.30998 -1.19076,-1.98827 v -2.11237 l -1.60851,6.6e-4 -1.60851,6.7e-4 -0.0128,0.91515 c -0.0167,1.20514 -0.89625,1.96455 -2.27524,1.96455 -1.49686,0 -2.3027,-0.94192 -2.13303,-2.49326 0.0368,-0.33658 -0.18064,-0.38784 -1.64511,-0.38784 h -1.68754 l 0.064,5.04193 0.064,5.04193 2.44255,0.0632 c 1.3434,0.0347 2.44255,0.15131 2.44255,0.25906 0,0.10775 -0.18194,0.49075 -0.40432,0.8511 -0.38072,0.61695 -0.38039,0.68916 0.005,1.23689 0.46793,0.66419 1.35259,0.77114 1.93075,0.23344 z m 11.91489,0 c 0.46294,-0.43055 0.4703,-1.17754 0.0171,-1.7344 -0.18823,-0.23127 -0.28572,-0.50553 -0.21666,-0.60947 0.0691,-0.10394 1.13798,-0.18897 2.37535,-0.18897 h 2.24977 v -5.09734 -5.09733 h -1.54894 -1.54893 v 0.89707 c 0,1.89678 -2.36333,2.70127 -3.85636,1.31271 -0.58849,-0.5473 -0.70399,-0.81341 -0.62526,-1.44055 l 0.0966,-0.76923 h -1.73938 -1.73938 v 1.44055 1.44054 h 0.72673 c 1.65575,0 2.82569,1.23925 2.49438,2.64215 -0.21917,0.92805 -1.16295,1.56871 -2.31095,1.56871 h -0.93194 l 0.0704,1.49595 0.0705,1.49596 2.44255,0.0631 c 1.34341,0.0347 2.44256,0.15132 2.44256,0.25907 0,0.10775 -0.18195,0.49075 -0.40432,0.8511 -0.38072,0.61695 -0.38041,0.68916 0.005,1.23689 0.46793,0.66418 1.35258,0.77114 1.93074,0.23344 z m 0,-11.08117 c 0.46294,-0.43055 0.4703,-1.17755 0.0171,-1.7344 -0.18823,-0.23127 -0.28572,-0.50553 -0.21666,-0.60946 0.0691,-0.10394 1.13798,-0.18898 2.37535,-0.18898 h 2.24977 v -5.09733 -5.09735 l -1.60851,6.7e-4 -1.60851,6.7e-4 -0.0127,0.91515 c -0.0105,0.71523 -0.156,1.02977 -0.66861,1.43984 -1.498,1.19836 -3.72718,0.32555 -3.72718,-1.45933 v -0.89707 h -1.66809 -1.66809 v 1.44055 1.44055 h 0.72673 c 1.65575,0 2.8257,1.23925 2.49438,2.64214 -0.21916,0.92806 -1.16295,1.56871 -2.31094,1.56871 h -0.93194 l 0.0704,1.49595 0.0705,1.49596 2.44254,0.0632 c 1.34341,0.0347 2.44256,0.15132 2.44256,0.25908 0,0.10775 -0.18195,0.49075 -0.40432,0.8511 -0.38072,0.61694 -0.3804,0.68916 0.005,1.23689 0.46793,0.66417 1.35259,0.77113 1.93074,0.23343 z m -14.72265,-4.18443 c -0.3468,-0.29891 -0.63055,-0.7477 -0.63055,-0.99731 0,-0.2496 -0.0388,-0.45383 -0.0862,-0.45383 -0.0474,0 -0.80897,0.3048 -1.69238,0.67733 -0.8834,0.37253 -1.83653,0.64678 -2.11807,0.60947 -0.41683,-0.0553 -0.96675,-0.99738 -2.9617399,-5.07393 -1.37801,-2.81583 -2.38812,-5.15574 -2.30872,-5.34817 0.13797,-0.33439 4.2285799,-2.1774097 4.8181599,-2.1708197 0.18604,0.002 0.29788,0.32329 0.29788,0.85548 0,1.3775197 1.14917,2.0430697 2.00646,1.1620597 0.56302,-0.57859 0.41034,-1.6193497 -0.2788,-1.9005397 -1.03848,-0.42373 -0.61374,-0.88246 1.70722,-1.84387 1.23387,-0.5111 2.34321,-0.92928 2.4652,-0.92928 0.3587,0 0.87506,0.69152 1.48941,1.99462 0.31606,0.6704 0.5883,1.24428 0.60497,1.27529 0.0166,0.031 0.37033,-0.1014 0.78594,-0.29422 1.52926,-0.70951 3.24281,0.29449 3.24281,1.9000297 0,0.95733 -0.82147,1.9946 -1.57965,1.9946 -0.56848,0 -0.55057,0.18768 0.1607,1.68344 0.94994,1.9977 0.87245,2.21741 -1.06239,3.01221 l -1.65813,0.68114 0.36858,0.66288 c 1.15526,2.0777 -1.72323,4.0958 -3.57071,2.50342 z m 2.60075,-0.88623 c 0.47658,-0.67646 0.26354,-1.39366 -0.51154,-1.7221 -0.9888,-0.41901 -0.64511,-0.82776 1.44897,-1.72327 2.27882,-0.97452 2.19313,-0.70313 0.97978,-3.10336 -0.8708,-1.72258 -0.82945,-1.99462 0.30316,-1.99462 0.92375,0 1.2498,-0.20219 1.53872,-0.9542 0.16103,-0.4191 -0.76024,-1.48366 -1.28394,-1.48366 -0.14998,0 -0.57319,0.2992 -0.94049,0.66487 -0.3673,0.36568 -0.77271,0.66488 -0.90091,0.66488 -0.1282,0 -0.64362,-0.84771 -1.14535,-1.8837997 -0.50175,-1.03609 -0.99418,-1.88381 -1.09429,-1.88381 -0.10013,0 -0.7796,0.24579 -1.50997,0.54619 l -1.32792,0.54618 0.39407,0.70873 c 0.7628,1.3718797 -0.3676,3.0746197 -2.04116,3.0746197 -0.85456,0 -1.84332,-0.62102 -2.10645,-1.323 -0.13846,-0.36938 -0.29798,-0.67161 -0.35449,-0.67161 -0.23331,0 -2.7816099,1.14967 -2.7816099,1.25494 0,0.10965 4.2874899,8.9926 4.3948799,9.10545 0.0288,0.0302 1.03374,-0.36204 2.23333,-0.87162 1.19958,-0.50959 2.25809,-0.8549 2.35222,-0.76735 0.0942,0.0876 0.14684,0.49512 0.1171,0.90569 -0.0995,1.37473 1.46114,2.01053 2.23589,0.91085 z"
     id="path2"
     sodipodi:nodetypes="cscssssscsscsscssssssssscsscssccsscssscsscscccssscssssssccccssscccsssccccssscccccssscccccssscccsssccccsssccccccsscccccssscccssscccssssssscsssssssssssscssssssssssssssscsssssssscs" /></svg>
