<?xml version="1.0" encoding="UTF-8" standalone="no"?>
<svg
   width="50"
   height="50.962585"
   viewBox="0 0 50 50.962585"
   fill="none"
   version="1.1"
   id="svg1"
   sodipodi:docname="trashIcon.svg"
   xml:space="preserve"
   inkscape:version="1.3.2 (091e20ef0f, 2023-11-25)"
   xmlns:inkscape="http://www.inkscape.org/namespaces/inkscape"
   xmlns:sodipodi="http://sodipodi.sourceforge.net/DTD/sodipodi-0.dtd"
   xmlns="http://www.w3.org/2000/svg"
   xmlns:svg="http://www.w3.org/2000/svg"><defs
     id="defs1" /><sodipodi:namedview
     id="namedview1"
     pagecolor="#ffffff"
     bordercolor="#000000"
     borderopacity="0.25"
     inkscape:showpageshadow="2"
     inkscape:pageopacity="0.0"
     inkscape:pagecheckerboard="0"
     inkscape:deskcolor="#d1d1d1"
     showguides="true"
     inkscape:zoom="1.4142136"
     inkscape:cx="-353.90694"
     inkscape:cy="-503.10647"
     inkscape:window-width="1920"
     inkscape:window-height="1052"
     inkscape:window-x="0"
     inkscape:window-y="0"
     inkscape:window-maximized="1"
     inkscape:current-layer="svg1" /><path
     d="M 0.46163466,50.57752 C -0.95923534,49.15665 1.1107247,39.14384 3.7996647,36.88124 l 1.65763,-1.39481 -1.04804,-1.916 c -1.24546,-2.27692 -0.9678,-4.61871 0.7665,-6.46481 4.26456,-4.53937 11.6082903,0.50547 8.8503203,6.07981 l -1.15733,2.33917 1.67219,1.30869 c 2.23027,1.74546 3.25521,7.8685 3.4411,11.12774 l 0.15374,2.6955 -8.6450703,0.15247 c -4.75479,0.0839 -8.81787004,-0.02 -9.02907004,-0.23148 z M 3.9670847,47.83207 c 0,-1.74064 1.30491,-1.55017 1.56667,0.2287 0.29498,2.00484 7.3234903,1.82976 7.3234903,-0.18241 0,-0.8643 0.31488,-1.38909 0.83345,-1.38909 0.52491,0 0.83346,0.5293 0.83346,1.42981 0,1.06799 0.24609,1.37892 0.97236,1.22862 1.40448,-0.29059 1.00903,-7.53034 -0.70522,-9.77782 -3.35264,-4.39558 -9.0478703,-1.07912 -11.2241203,4.1294 -1.11105,2.65916 -2.04672,5.76816 -0.71136,5.76816 0.8245,0 1.11127,-0.37044 1.11127,-1.43537 z M 12.261275,33.24639 c 1.51232,-1.92261 1.45393,-3.28492 -0.2122,-4.95104 -3.5832903,-3.5833 -8.9443403,0.97797 -5.8191103,4.95104 0.83523,1.06182 1.66368,1.46399 3.01565,1.46399 1.3519703,0 2.1804203,-0.40217 3.0156603,-1.46399 z m 4.30022,17.31752 c -1.48938,-1.48933 0.2879,-10.96348 3.04749,-13.3864 l 1.91656,-1.68274 -0.99742,-1.64235 c -2.83714,-4.67163 2.17097,-10.41177 6.9511,-7.96714 3.01555,1.54216 4.11998,5.53801 2.26327,8.18884 -0.86023,1.22812 -0.81756,1.34891 1.09505,3.10077 2.36156,2.16309 3.13384,7.96096 3.13384,11.29527 v 2.46419 h -8.51973 c -4.68589,0 -8.68646,-0.16669 -8.89016,-0.37044 z m 3.41877,-2.83013 c 0.22981,-1.61095 1.08271,-1.60729 1.3118,0.006 0.29449,2.07357 7.6786,2.23159 7.6786,0.1643 0,-0.88691 0.31088,-1.41448 0.83345,-1.41448 0.51858,0 0.83345,0.52479 0.83345,1.38908 0,0.86435 0.31488,1.38909 0.83346,1.38909 1.12027,0 1.09788,-6.87763 -0.0395,-9.077 -3.19718,-6.18267 -13.57361,0.64668 -13.57361,7.70108 0,1.84688 1.85598,1.70891 2.1223,-0.15774 z m 7.7555,-13.88836 c 2.59815,-1.81982 0.90224,-6.91394 -2.30177,-6.91394 -0.72283,0 -1.97301,0.51824 -2.77818,1.15161 -3.99307,3.14095 0.89935,8.69053 5.07995,5.76233 z m 4.56871,14.63886 c 0,-3.34848 0.76983,-9.14396 3.13384,-11.30939 1.9126,-1.75186 1.95528,-1.87265 1.09504,-3.10077 -2.75334,-3.93095 0.80884,-9.44747 5.52874,-8.56201 4.02419,0.75494 6.03186,6.17939 3.37404,9.1162 -0.778,0.85973 -0.7076,1.03992 0.79728,2.04051 2.19954,1.46249 3.96972,9.18202 3.74776,11.87463 l -0.17419,2.11308 -8.75126,0.15302 -8.75125,0.15302 z m 3.4341,-0.42351 c 0,1.81487 1.56662,-1.96456 1.56662,-0.20331 0,2.10742 7.37866,1.99407 7.67865,-0.11801 0.22903,-1.61296 1.08193,-1.61662 1.3118,-0.006 0.0987,0.69171 0.64531,1.33375 1.23062,1.44537 1.66768,0.3181 0.86813,-8.01841 -1.12438,-10.09809 -4.5072,-4.70451 -12.42117,2.08489 -12.42839,8.38057 0,2.07169 1.76508,-1.39607 1.76508,0.59914 z m 8.23424,-14.46166 c 1.59884,-1.59885 1.43848,-4.10704 -0.35272,-5.51602 -1.84815,-1.45371 -3.77532,-1.46865 -5.20363,-0.0406 -2.4049,2.4049 -0.62876,6.66762 2.77817,6.66762 0.92608,0 2.16081,-0.4939 2.77818,-1.11127 z M 8.0685547,19.34908 c -0.19097,-0.49774 -0.1853,-1.91761 0.0128,-3.15534 0.31627,-1.97795 0.1563,-2.48224 -1.32146,-4.16532 -5.37444,-6.1211496 4.5772103,-14.1302996 14.3158803,-11.52153955 2.70661,0.72499995 0.85635,1.57889995 -3.03199,1.39925995 -8.6996903,-0.40189 -14.2645403,5.1963 -9.6038803,9.6614896 1.26413,1.21112 1.6125703,1.9495 1.37209,2.9077 -0.51246,2.04168 0.2349803,2.56848 1.6964103,1.19561 1.45526,-1.36719 10.2443,-1.89182 10.66275,-0.63648 0.2537,0.76106 -4.35657,1.47099 -6.617,1.01893 -1.44627,-0.28927 -2.13309,0.01 -4.42503,1.92911 -2.2459803,1.88043 -2.7728903,2.11569 -3.0603803,1.36658 z M 39.249915,18.11352 c -2.10608,-1.88389 -2.44085,-1.99196 -6.38981,-2.06313 -16.03896,-0.28904 -16.03896,-15.56828955 0,-15.60967955 9.76501,-0.025 15.3132,5.83416995 10.94602,11.55986955 -1.21462,1.59245 -1.50022,2.55565 -1.50022,5.05995 0,3.62213 -0.13268,3.66786 -3.05599,1.05299 z m 2.45596,-6.27068 c 3.5389,-1.8939396 2.28555,-6.5132096 -2.35317,-8.6730196 -9.34306,-4.35007 -21.49374,2.38201 -15.13067,8.3831396 2.26622,2.13731 6.36442,3.29737 10.30965,2.91826 2.20465,-0.21181 2.97581,-0.0311 4.26066,0.99742 l 1.56884,1.25612 0.17075,-2.17253 c 0.11002,-1.39987 0.52752,-2.36345 1.17394,-2.70939 z M 26.950485,8.7667904 c -0.19247,-0.50152 -0.0835,-1.17828 0.24215,-1.50394 0.84656,-0.84657 2.45057,-0.0728 2.22943,1.07543 -0.24632,1.27902 -2.02674,1.58767 -2.47158,0.42851 z m 5.00072,0 c -0.19248,-0.50152 -0.0835,-1.17828 0.24214,-1.50394 0.84657,-0.84657 2.45058,-0.0728 2.22943,1.07543 -0.24631,1.27902 -2.02673,1.58767 -2.47157,0.42851 z m 5.00071,0 c -0.19247,-0.50152 -0.0834,-1.17828 0.24215,-1.50394 0.84656,-0.84657 2.45057,-0.0728 2.22943,1.07543 -0.24631,1.27902 -2.02674,1.58767 -2.47158,0.42851 z m -25.74135,0.0206 c -0.8269,-0.99631 -0.30104,-1.96906 1.06437,-1.96906 1.24318,0 1.83699,1.30124 0.98342,2.15487 -0.82423,0.82417 -1.24101,0.78633 -2.04779,-0.18581 z m 5.13507,0.18581 c -0.84562,-0.84562 -0.26432,-2.15487 0.95669,-2.15487 1.22101,0 1.80231,1.30925 0.95675,2.15487 -0.34288,0.34282 -0.77339,0.62331 -0.95675,0.62331 -0.18336,0 -0.61386,-0.28049 -0.95669,-0.62331 z"
     style="fill:#2a7ae4;fill-opacity:1;stroke-width:0.555635"
     id="path1-2"
     sodipodi:nodetypes="cscssscsscccssssssssssssssscscssssscsccsssssssccsscssscsssscccssssssccsscscsccccssssscsscccsscsssccssccscscssscssscsssscssssss"
     inkscape:export-filename="../../../portafolio/oracleone_portafolio/assets/comunicacion.png"
     inkscape:export-xdpi="241.06776"
     inkscape:export-ydpi="241.06776" /></svg>
