<?xml version="1.0" encoding="UTF-8" standalone="no"?>
<svg
   width="49.960388"
   height="56.675659"
   viewBox="0 0 49.960388 56.675659"
   fill="none"
   version="1.1"
   id="svg1"
   sodipodi:docname="trashIcon.svg"
   xml:space="preserve"
   inkscape:version="1.3.2 (091e20ef0f, 2023-11-25)"
   xmlns:inkscape="http://www.inkscape.org/namespaces/inkscape"
   xmlns:sodipodi="http://sodipodi.sourceforge.net/DTD/sodipodi-0.dtd"
   xmlns="http://www.w3.org/2000/svg"
   xmlns:svg="http://www.w3.org/2000/svg"><defs
     id="defs1" /><sodipodi:namedview
     id="namedview1"
     pagecolor="#ffffff"
     bordercolor="#000000"
     borderopacity="0.25"
     inkscape:showpageshadow="2"
     inkscape:pageopacity="0.0"
     inkscape:pagecheckerboard="0"
     inkscape:deskcolor="#d1d1d1"
     showguides="true"
     inkscape:zoom="1.4142136"
     inkscape:cx="-353.90694"
     inkscape:cy="-503.10647"
     inkscape:window-width="1920"
     inkscape:window-height="1052"
     inkscape:window-x="0"
     inkscape:window-y="0"
     inkscape:window-maximized="1"
     inkscape:current-layer="svg1" /><g
     id="g23"
     transform="matrix(0.33360368,0,0,0.33360368,344.93033,160.24553)"
     inkscape:export-filename="../../../portafolio/oracleone_portafolio/assets/equipo.png"
     inkscape:export-xdpi="241.06776"
     inkscape:export-ydpi="241.06776"><path
       d="m -996.21552,-315.34588 c -1.98975,-1.00315 -4.87478,-1.58604 -6.41088,-1.29557 -1.5366,0.28963 -4.0079,-0.7996 -5.4927,-2.42241 -1.4848,-1.62283 -3.9477,-2.6896 -5.4732,-2.37061 -9.2531,1.93491 -18.5428,-35.53905 -14.2767,-57.59096 1.1269,-5.82536 1.6725,-12.39161 1.2125,-14.59165 -0.4601,-2.20021 -0.1177,-4.15062 0.7609,-4.33434 2.833,-0.59239 4.3767,12.44693 2.563,21.64941 -1.9324,9.80664 2.9197,44.34827 6.777,48.24276 3.6675,3.70307 5.0721,-0.97103 3.1103,-10.35277 -3.159,-15.10674 1.6456,-11.55322 5.5067,4.07298 2.4444,9.89181 3.6989,12.7064 5.4962,12.33056 1.8463,-0.38607 1.7452,-3.27912 -0.4879,-13.95834 -2.2692,-10.85183 -2.3512,-13.56875 -0.4208,-13.97241 1.9616,-0.4102 3.0026,2.399 5.74131,15.49615 2.7006,12.91479 3.79533,15.90307 5.68143,15.50867 1.84659,-0.38614 1.75591,-3.74359 -0.43318,-16.02455 -3.63082,-20.36843 -0.68881,-23.74473 4.02607,-4.62026 2.53532,10.2842 3.73211,12.96167 5.61788,12.56734 1.97507,-0.41301 1.71693,-4.14233 -1.46878,-21.22283 -4.24383,-22.753 -3.92512,-23.758 5.07562,-16.00052 4.37155,3.76781 6.54666,4.68138 7.50997,3.15423 0.96786,-1.53408 -2.23909,-5.70605 -11.19934,-14.56958 -11.37259,-11.24957 -13.42349,-14.44512 -9.76296,-15.21057 0.67604,-0.14137 7.06224,5.73971 14.19161,13.06897 11.94847,12.28368 12.8449,13.64286 11.46039,17.37594 -1.95855,5.28077 -5.84752,6.86257 -10.2107,4.153 -4.80652,-2.98472 -5.02772,-0.9999 -1.50302,13.47903 3.31115,13.60122 2.44249,20.55715 -2.70157,21.63282 -1.62939,0.34072 -3.61965,1.94325 -4.42296,3.56104 -1.85126,3.72874 -5.82969,4.58194 -10.46613,2.24475 z"
       style="fill:#2a7ae4;fill-opacity:1;stroke-width:1.67558"
       id="path24"
       sodipodi:nodetypes="ccsssssscssssssssssssscssssssccc" /><path
       d="m -942.17478,-310.62386 c -2.81603,-0.58349 -6.71275,-1.87381 -8.6591,-2.86725 -1.94651,-0.99358 -7.06639,-1.25746 -11.3776,-0.58639 -5.54886,0.86372 -7.74148,0.56935 -7.507,-1.0078 0.64573,-4.34016 12.01738,-5.37307 23.05468,-2.09409 17.25471,5.12612 54.07369,-0.23711 48.49914,-7.06467 -0.61508,-0.75338 -5.127,-0.74575 -10.02664,0.0169 -14.46653,2.25181 -10.92888,-2.54006 4.05475,-5.49234 9.31196,-1.83459 12.20002,-3.00494 11.91619,-4.82839 -0.28383,-1.82344 -3.39095,-2.06042 -12.81999,-0.97802 -18.88501,2.16793 -18.46535,-1.7157 0.57481,-5.31892 12.01682,-2.27407 14.87569,-3.3307 14.55674,-5.37972 -0.3187,-2.04749 -3.35046,-2.1886 -15.38924,-0.7167 -17.27882,2.11258 -21.02927,-0.57874 -4.41125,-3.16544 7.31076,-1.13797 11.58172,-2.59914 12.53161,-4.28713 2.45086,-4.35579 -0.38916,-4.56714 -20.11155,-1.49722 -21.28738,3.31352 -23.76942,2.20499 -14.80418,-6.61174 2.75203,-2.70638 4.92632,-5.44992 4.83172,-6.09697 -0.60535,-4.14385 -5.41744,-1.13353 -17.31602,10.83236 -10.4505,10.50955 -13.65182,12.92597 -13.9957,10.56396 -0.485,-3.32775 23.28196,-28.51916 27.52979,-29.18036 4.93462,-0.76811 9.32489,6.65435 7.07213,11.95709 l -1.9799,4.66082 13.43577,-2.09137 c 13.59382,-2.11597 18.99872,-1.10427 20.48747,3.83475 0.408,1.35319 2.28842,4.15139 4.17901,6.21815 4.21889,4.61208 4.66804,6.94586 1.95927,10.17739 -1.1492,1.37098 -1.82783,4.1735 -1.50809,6.22763 0.31976,2.05429 -0.97395,5.68015 -2.87488,8.05765 -1.90096,2.37732 -3.28963,5.39309 -3.08594,6.70164 0.20368,1.30857 -0.70522,3.02221 -2.01983,3.80801 -3.99642,2.38889 -41.32694,7.34129 -46.79617,6.20816 z"
       style="fill:#144f9a;fill-opacity:1;stroke-width:1.67558"
       id="path25"
       sodipodi:nodetypes="ssscssscsssssscsscscsccssssscsss" /><path
       d="m -898.29934,-392.67398 c -2.58229,-2.03654 -2.48074,-10.58068 0.24497,-20.5943 4.76148,-17.49272 -0.58382,-56.64341 -6.96707,-51.02928 -0.71329,0.62734 -0.69253,5.30929 0.0461,10.40414 1.02916,7.09926 0.77682,9.34559 -1.07975,9.61473 -1.95169,0.28294 -2.80658,-2.29709 -4.39717,-13.26911 -1.56525,-10.79718 -2.46261,-13.54958 -4.32934,-13.27896 -1.81716,0.26343 -2.03027,3.33778 -0.93342,13.46788 2.15687,19.91862 -1.53842,19.37638 -5.06075,-0.7427 -2.22303,-12.69776 -3.24204,-15.73203 -5.18889,-15.4498 -1.94685,0.28223 -2.06245,3.48099 -0.58819,16.28729 2.27687,19.77831 -1.01492,21.96376 -4.5208,3.00125 -1.71406,-9.27109 -2.79978,-12.05788 -4.5961,-11.79747 -1.9286,0.27958 -1.81867,4.01928 0.60986,20.77143 3.24761,22.40222 2.38673,24.93267 -5.59885,16.45656 -3.89922,-4.13864 -9.34299,-5.7739 -8.89319,-2.67118 0.098,0.67573 5.23346,6.98014 11.41208,14.00979 7.5479,8.5874 10.78166,13.42171 9.85505,14.73322 -1.48282,2.09878 -25.46439,-23.57023 -26.09688,-27.93318 -0.77179,-5.32383 8.25946,-10.4593 11.42597,-6.49727 3.39317,4.24589 4.08241,-0.27736 2.1126,-13.86517 -2.15691,-14.8785 -1.43687,-19.2609 3.27699,-19.94426 1.19065,-0.17261 4.03921,-2.26686 6.32985,-4.6538 3.94113,-4.10709 4.40483,-4.2209 8.63741,-2.12131 2.46,1.22021 5.56007,2.06097 6.88913,1.8683 1.32924,-0.1927 4.09632,1.07322 6.14931,2.81309 2.05298,1.73986 5.53478,3.80331 7.73732,4.58524 6.06034,2.15168 12.29979,44.7344 8.32258,56.79555 -1.41759,4.29821 -2.19212,10.47289 -1.72118,13.72151 0.81003,5.58758 -0.30067,7.50725 -3.07698,5.31772 z"
       style="fill:#2a7ae4;fill-opacity:1;stroke-width:1.67558"
       id="path26"
       sodipodi:nodetypes="csssssscssssssssssscsscsssccscc" /><path
       d="m -991.43484,-415.97664 c -3.17672,-2.18109 -3.62766,-5.20542 -1.61018,-10.80035 l 1.69358,-4.69667 -15.02746,3.20395 c -15.3628,3.27545 -19.1292,2.74903 -20.3208,-2.8398 -0.331,-1.55247 -1.8802,-3.53545 -3.4425,-4.40674 -1.5624,-0.87126 -3.2048,-3.29154 -3.6497,-5.37836 -0.4449,-2.08684 0.067,-4.96652 1.1386,-6.3993 1.0711,-1.43275 1.5695,-4.37838 1.1073,-6.54597 -0.4731,-2.21925 0.3867,-5.02543 1.968,-6.42272 1.5446,-1.36484 2.5968,-3.47327 2.3384,-4.68535 -1.8353,-8.60813 29.1894,-18.01293 48.5885,-14.72893 5.23667,0.88649 13.51961,1.27142 18.40638,0.85539 20.6548,-1.75776 7.37346,8.59716 -15.09462,4.29882 -12.32264,-2.35739 -46.21196,3.88528 -46.66016,8.59523 -0.1395,1.46578 2.7476,1.69105 9.0605,0.70675 15.287,-2.38313 14.11651,1.91882 -1.4235,5.23205 -11.8379,2.52393 -12.8427,3.0284 -12.1845,6.11583 0.6583,3.08759 1.7815,3.13819 13.6194,0.61427 17.98486,-3.83449 17.88073,0.47088 -0.1134,4.68765 -16.9906,3.98187 -16.5697,3.80804 -15.9761,6.59228 0.4139,1.94112 3.5806,1.91591 15.0016,-0.12018 17.70337,-3.156 20.40265,-0.66012 4.3089,3.98455 -17.1451,4.94798 -16.2394,8.69486 1.2457,5.15407 29.03589,-5.87983 31.63493,-5.44293 23.14495,3.89115 -4.73177,5.20213 -5.71195,9.83941 -1.90834,9.02845 1.09088,-0.23258 7.24386,-6.29375 13.67345,-13.46929 12.43407,-13.87664 13.79011,-14.95362 13.7929,-10.9553 0.003,3.70442 -21.87828,28.51022 -25.90625,29.36901 -1.88356,0.40158 -4.48037,0.005 -5.77065,-0.88049 z"
       style="fill:#144f9a;fill-opacity:1;stroke-width:1.67558"
       id="path27"
       sodipodi:nodetypes="ccsscsssssssssssscssscssssssssss" /></g></svg>
