<?xml version="1.0" encoding="UTF-8" standalone="no"?>
<svg
   width="50"
   height="58.470764"
   viewBox="0 0 50 58.470764"
   fill="none"
   version="1.1"
   id="svg1"
   sodipodi:docname="trashIcon.svg"
   xml:space="preserve"
   inkscape:version="1.3.2 (091e20ef0f, 2023-11-25)"
   xmlns:inkscape="http://www.inkscape.org/namespaces/inkscape"
   xmlns:sodipodi="http://sodipodi.sourceforge.net/DTD/sodipodi-0.dtd"
   xmlns="http://www.w3.org/2000/svg"
   xmlns:svg="http://www.w3.org/2000/svg"><defs
     id="defs1" /><sodipodi:namedview
     id="namedview1"
     pagecolor="#ffffff"
     bordercolor="#000000"
     borderopacity="0.25"
     inkscape:showpageshadow="2"
     inkscape:pageopacity="0.0"
     inkscape:pagecheckerboard="0"
     inkscape:deskcolor="#d1d1d1"
     showguides="true"
     inkscape:zoom="1.4142136"
     inkscape:cx="-353.90694"
     inkscape:cy="-503.10647"
     inkscape:window-width="1920"
     inkscape:window-height="1052"
     inkscape:window-x="0"
     inkscape:window-y="0"
     inkscape:window-maximized="1"
     inkscape:current-layer="svg1" /><g
     id="g17"
     transform="matrix(0.17555492,0,0,0.17555492,264.21331,117.29508)"
     inkscape:export-filename="../../../portafolio/oracleone_portafolio/assets/selflearn.png"
     inkscape:export-xdpi="241.06776"
     inkscape:export-ydpi="241.06776"
     style="stroke:none;stroke-opacity:1"><path
       style="fill:#2a7ae4;fill-opacity:1;stroke:none;stroke-width:0.904554;stroke-opacity:1"
       d="m -1367.6816,-361.0815 c -3.6236,0 -10.5689,-7.79753 -16.0752,-9.68557 -6.8514,-2.34923 -17.3185,-18.50481 -28.0522,-16.42299 -20.064,3.89146 -35.6128,-0.41536 -49.7277,-13.7738 l -4.8213,-4.56295 -1.7794,-10.89819 c -0.9786,-5.994 -1.6886,-10.92199 -1.5778,-10.95108 l -10.4987,-63.93416 -4.2325,-25.55252 c -2.3279,-14.05388 -4.2577,-26.51683 -4.2883,-27.69545 l -0.055,-2.14295 2.9139,1.97936 c 6.5035,4.41773 16.0176,8.40657 23.2218,9.73591 9.067,1.67307 16.8071,1.2644 38.4187,-2.02846 24.6873,-3.76151 37.8674,14.17211 51.0489,23.15799 l 5.8132,3.9629 0.6613,46.02903 c 0.9491,66.06354 1.4913,102.78293 -0.9689,102.78293 z m 9.3648,-73.40867 0.5443,-74.6042 2.372,-2.08725 c 1.3045,-1.14789 5.5996,-3.72379 9.5445,-5.724 13.6034,-6.89724 27.4983,-23.76181 51.6253,-19.44143 7.7403,1.38606 14.813,2.00388 22.8629,1.99715 10.46,-0.009 12.4362,-0.27879 19.2635,-2.6324 4.1843,-1.44246 10.1772,-4.37635 13.3175,-6.51977 5.108,-3.48635 5.6607,-3.68256 5.244,-1.86145 -0.2563,1.11961 -2.3726,13.79815 -4.703,28.17455 l -4.2373,26.13889 -10.5125,64.52837 c 0.2238,0.47287 -0.8973,6.21167 -1.6943,10.95641 l -1.6862,10.03849 -5.5103,5.16251 c -6.1841,5.79394 -16.9457,11.83927 -24.0934,13.5345 -6.6327,1.57308 -16.38,1.4037 -25.2558,-0.4389 -5.2547,-1.09091 -10.4104,-1.46145 -17.0099,-1.22252 -8.3157,0.30107 -11.148,16.66661 -16.2655,19.13127 -3.2053,1.5437 -7.5807,4.30686 -9.7231,6.14036 -2.1426,1.83349 -4.0601,3.33362 -4.2613,3.33362 -0.2012,0 -0.1208,-33.57188 0.1786,-74.6042 z"
       id="path17"
       sodipodi:nodetypes="sssscsccsscsssscsssscssscssssccscssssssss" /><path
       style="fill:#ffffff;stroke:none;stroke-opacity:1"
       d="m -1367.4197,-340.94281 c -2.5533,-3.07792 -8.7621,-21.77503 -14.9035,-23.84392 -7.6416,-2.57424 -20.3955,-2.76479 -32.3672,-0.48356 -22.3781,4.26419 -39.7203,-0.45521 -55.4631,-15.0931 l -5.3774,-5 -1.9846,-11.94205 c -1.0915,-6.56812 -1.8835,-11.96812 -1.7599,-12 l -11.7096,-70.05795 -4.7207,-28 c -2.5964,-15.4 -4.7488,-29.05669 -4.7829,-30.3482 l -0.062,-2.34821 3.25,2.16895 c 7.2537,4.84089 17.8651,9.21178 25.9002,10.66844 10.1128,1.83332 18.7456,1.38551 42.8498,-2.22275 27.5348,-4.1218 40.2888,11.24766 54.9905,21.0943 l 6.4836,4.34248 0.7377,50.43781 c 1.0589,72.39128 0.6528,114.71739 -1.0807,112.62776 z m 10.4448,-80.43995 0.6072,-81.75 2.6455,-2.28717 c 1.455,-1.25795 6.2455,-4.08046 10.6455,-6.27226 15.1723,-7.55788 23.5043,-22.83001 50.4141,-18.09581 8.6331,1.51882 16.5215,2.19581 25.5,2.18844 11.6664,-0.01 13.8705,-0.30549 21.4853,-2.88454 4.6669,-1.58062 11.351,-4.79553 14.8535,-7.14425 5.6971,-3.82028 6.3135,-4.03528 5.8488,-2.03974 -0.2858,1.22685 -2.6463,15.11978 -5.2455,30.87318 l -4.7259,28.64254 -11.7251,70.70907 c 0.2497,0.51817 -1.0008,6.80666 -1.8897,12.00585 l -1.8807,11 -6.1458,5.65699 c -6.8975,6.34885 -18.9003,12.97327 -26.8723,14.83087 -7.3977,1.72376 -18.2693,1.53815 -28.1687,-0.48094 -5.8609,-1.1954 -11.6112,-1.60143 -18.9719,-1.33961 -9.2748,0.3299 -5.2683,15.05521 -10.9761,17.75594 -3.575,1.69156 -8.4551,4.71939 -10.8446,6.7285 -2.3896,2.00911 -4.5283,3.65293 -4.7527,3.65293 -0.2244,0 -0.1348,-36.78749 0.1991,-81.74999 z"
       id="path14"
       sodipodi:nodetypes="sssscsccsscsssscsssscssscssssccscssssssss" /><path
       style="fill:#2a7ae4;fill-opacity:1;stroke:none;stroke-width:0.789429;stroke-opacity:1"
       d="m -1365.8357,-519.95331 c -16.8538,-15.89094 -40.1268,-22.93771 -52.0016,-20.53565 -5.5365,1.11993 -14.4812,1.86708 -19.7959,2.10065 l -9.6632,0.42468 1.9124,-2.9939 c 9.4219,-14.74893 25.0738,-25.95023 42.5432,-30.44577 6.0277,-1.55115 8.7376,-1.68964 38.4298,-1.96372 33.3028,-0.30741 40.8427,0.12416 50.0747,2.86615 11.039,3.27872 21.9373,9.78572 29.8845,17.84323 4.4975,4.55974 10.9051,12.86763 10.9051,14.13895 0,0.95198 -18.4057,-1.75895 -28.777,-1.94781 -13.631,-0.24822 -26.944,2.52851 -53.2772,21.87001 -1.8844,1.38407 -3.7228,2.38058 -3.9903,2.34803 -0.2674,-0.0325 -3.5172,-1.13339 -6.2445,-3.70485 z m -2.3481,-63.96293 c -20.1019,-3.48327 -35.1497,-19.41338 -36.4729,-38.6117 -0.8893,-12.90328 3.4574,-23.85455 13.0835,-32.96167 14.0709,-13.31258 33.4086,-16.33951 51.2537,-8.02276 27.2166,12.68443 33.2772,47.94645 11.6871,67.99797 -10.2942,9.56073 -25.5284,14.02804 -39.5514,11.59816 z"
       id="path15"
       sodipodi:nodetypes="sscsssssssssssssssss" /><path
       style="fill:#2a7ae4;fill-opacity:1;stroke:none;stroke-opacity:1"
       d="m -1368.8611,-336.38647 c -2.5533,-3.07792 -11.788,-8.5444 -17.9294,-10.61329 -7.6416,-2.57424 -20.3955,-2.76479 -32.3672,-0.48356 -22.3781,4.26419 -39.7204,-0.45515 -55.4631,-15.0931 l -5.3774,-5 -1.9846,-11.94205 c -1.0915,-6.56812 -1.8835,-11.96812 -1.7599,-12 l -11.7096,-70.05795 -4.7207,-28 c -2.5964,-15.4 -4.7487,-29.05669 -4.7829,-30.3482 l -0.062,-2.34821 3.25,2.16895 c 7.2537,4.84087 17.8651,9.21178 25.9002,10.66844 10.1128,1.83332 18.7456,1.38551 42.8498,-2.22275 27.5348,-4.1218 43.3147,-1.98297 58.0164,7.86367 l 6.4836,4.34248 0.7377,50.43781 c 1.0589,72.39128 0.6528,114.71739 -1.0807,112.62776 z m 10.4448,-80.43995 0.6072,-81.75 2.6455,-2.28717 c 1.455,-1.25795 6.2455,-4.08046 10.6455,-6.27226 15.1723,-7.55788 29.5902,-8.52532 56.5,-3.79112 8.6331,1.51882 16.5215,2.19581 25.5,2.18844 11.6664,-0.01 13.8705,-0.30549 21.4853,-2.88454 4.6669,-1.58062 11.351,-4.79553 14.8535,-7.14425 5.6971,-3.82028 6.3135,-4.03528 5.8488,-2.03974 -0.2858,1.22685 -2.6463,15.11977 -5.2455,30.87318 l -4.7259,28.64254 -11.7251,70.70907 c 0.2497,0.51817 -1.0008,6.80665 -1.8897,12.00585 l -1.8807,11 -6.1458,5.65699 c -6.8974,6.3489 -18.9003,12.97327 -26.8723,14.83087 -7.3977,1.72376 -18.2693,1.53815 -28.1687,-0.48094 -5.8609,-1.1954 -11.6112,-1.60143 -18.9719,-1.33961 -9.2748,0.3299 -11.3542,0.75052 -17.062,3.45125 -3.575,1.69156 -8.4551,4.71939 -10.8446,6.7285 -2.3896,2.00911 -4.5283,3.65293 -4.7527,3.65293 -0.2244,0 -0.1348,-36.78749 0.1991,-81.74999 z"
       id="path16"
       sodipodi:nodetypes="sssscsccsscsssscsssscssscssssccscssssssss" /></g></svg>
